<svg id="svg" version="1.1" xmlns="http://www.w3.org/2000/svg" xmlns:xlink="http://www.w3.org/1999/xlink" width="400" height="96.38554216867469" viewBox="0, 0, 400,96.38554216867469"><g id="svgg"><path id="path0" d="M32.326 1.407 C 32.489 1.604,32.464 1.643,32.191 1.623 C 32.007 1.609,31.893 1.538,31.938 1.465 C 31.983 1.393,31.907 1.333,31.770 1.333 C 31.632 1.333,31.474 1.407,31.419 1.497 C 31.355 1.600,31.199 1.586,30.996 1.459 C 30.521 1.162,30.232 1.499,30.512 2.024 C 30.703 2.382,30.697 2.396,30.444 2.188 C 30.206 1.992,30.167 1.996,30.167 2.220 C 30.167 2.363,30.237 2.524,30.323 2.577 C 30.420 2.637,30.414 2.864,30.307 3.170 C 30.120 3.707,30.042 3.718,26.750 3.700 C 26.292 3.698,25.823 3.773,25.708 3.868 C 25.563 3.989,25.500 3.984,25.500 3.854 C 25.500 3.751,25.331 3.672,25.125 3.678 C 24.766 3.690,24.764 3.696,25.083 3.842 C 25.314 3.947,25.185 3.965,24.660 3.900 C 23.606 3.769,23.191 4.129,23.055 5.295 L 22.953 6.173 22.391 6.068 C 22.062 6.006,21.736 6.040,21.603 6.151 C 21.478 6.254,21.261 6.295,21.121 6.242 C 20.811 6.123,20.583 6.429,20.856 6.598 C 20.986 6.678,21.007 6.645,20.917 6.500 C 20.827 6.355,20.847 6.322,20.977 6.402 C 21.239 6.564,21.028 6.880,20.733 6.767 C 20.461 6.662,20.433 6.968,20.660 7.567 C 20.763 7.836,20.763 8.024,20.660 8.087 C 20.572 8.142,20.500 8.261,20.500 8.353 C 20.500 8.445,20.587 8.466,20.692 8.401 C 20.804 8.332,20.840 8.355,20.778 8.454 C 20.720 8.549,20.521 8.666,20.336 8.714 C 20.151 8.763,20.042 8.734,20.093 8.651 C 20.220 8.446,19.720 8.460,19.322 8.673 C 19.100 8.791,19.000 8.791,19.000 8.673 C 19.000 8.408,18.568 8.467,18.320 8.766 C 18.132 8.992,18.160 9.078,18.508 9.351 C 18.754 9.543,18.801 9.630,18.626 9.568 C 18.436 9.501,18.297 9.568,18.221 9.764 C 18.155 9.936,18.188 10.090,18.297 10.127 C 18.590 10.224,18.151 10.833,17.788 10.833 C 17.624 10.833,17.450 10.937,17.401 11.065 C 17.330 11.249,17.213 11.259,16.823 11.112 C 16.116 10.845,15.715 11.255,15.970 11.986 C 16.114 12.399,16.104 12.500,15.918 12.500 C 15.732 12.500,15.689 12.957,15.697 14.875 C 15.710 18.047,15.684 18.618,15.539 18.393 C 15.295 18.014,13.651 18.186,13.457 18.611 C 13.336 18.877,13.339 19.055,13.466 19.209 C 13.571 19.335,13.589 19.523,13.508 19.653 C 13.285 20.015,13.287 31.768,13.511 32.187 C 13.644 32.435,13.646 32.507,13.517 32.427 C 13.291 32.287,13.272 32.979,13.493 33.328 C 13.590 33.481,13.584 33.649,13.477 33.778 C 13.057 34.284,13.902 35.094,14.410 34.672 C 14.566 34.543,14.671 34.538,14.745 34.659 C 14.905 34.918,15.716 34.885,15.569 34.625 C 15.475 34.458,15.496 34.458,15.676 34.625 C 15.809 34.749,16.357 34.833,17.033 34.833 C 17.657 34.833,18.167 34.890,18.167 34.958 C 18.167 35.027,15.415 35.067,12.052 35.047 C 7.452 35.020,5.875 35.061,5.687 35.214 C 5.488 35.374,5.462 35.373,5.561 35.208 C 5.711 34.959,5.209 34.926,4.838 35.160 C 4.679 35.261,4.552 35.251,4.480 35.134 C 4.298 34.840,3.823 35.112,3.948 35.438 C 4.021 35.630,3.994 35.682,3.862 35.601 C 3.552 35.410,3.635 35.854,3.958 36.119 C 4.119 36.250,4.164 36.315,4.059 36.263 C 3.850 36.160,3.667 36.511,3.667 37.014 C 3.667 37.340,3.537 37.393,2.875 37.340 C 2.669 37.323,2.500 37.392,2.500 37.494 C 2.500 37.625,2.394 37.622,2.133 37.482 C 1.858 37.335,1.750 37.334,1.702 37.477 C 1.667 37.583,1.568 37.625,1.482 37.572 C 1.396 37.519,1.339 37.537,1.357 37.613 C 1.374 37.688,1.332 37.949,1.263 38.193 C 1.195 38.436,1.213 38.776,1.305 38.947 C 1.569 39.440,1.245 39.833,0.575 39.833 L 0.000 39.833 0.000 48.157 L 0.000 56.480 0.625 56.532 C 1.245 56.583,1.250 56.589,1.262 57.333 C 1.279 58.441,1.309 58.545,1.578 58.442 C 1.713 58.390,1.874 58.431,1.937 58.533 C 2.006 58.645,1.976 58.671,1.859 58.599 C 1.745 58.529,1.667 58.586,1.667 58.740 C 1.667 59.046,1.745 59.059,2.178 58.827 C 2.409 58.704,2.500 58.709,2.500 58.846 C 2.500 58.960,2.650 58.998,2.876 58.942 C 3.502 58.785,3.698 59.045,3.718 60.062 C 3.737 61.021,3.797 61.136,4.115 60.819 C 4.245 60.688,4.332 60.696,4.424 60.845 C 4.501 60.970,4.483 61.009,4.378 60.944 C 4.283 60.885,4.124 60.934,4.026 61.052 C 3.886 61.221,3.972 61.271,4.423 61.284 C 4.812 61.295,4.964 61.238,4.892 61.108 C 4.826 60.990,4.871 60.997,5.009 61.125 C 5.132 61.240,5.447 61.333,5.708 61.333 L 6.184 61.333 6.157 71.820 C 6.142 77.587,6.180 82.387,6.241 82.486 C 6.303 82.585,6.274 82.667,6.177 82.667 C 5.917 82.667,5.961 83.717,6.236 84.093 C 6.387 84.299,6.416 84.483,6.317 84.603 C 6.117 84.844,6.301 85.333,6.591 85.333 C 6.714 85.333,6.866 85.249,6.930 85.145 C 7.010 85.016,7.093 85.041,7.196 85.225 C 7.322 85.449,7.664 85.490,9.298 85.473 C 10.372 85.461,11.719 85.463,12.292 85.476 L 13.333 85.500 13.333 88.593 C 13.333 90.294,13.392 91.650,13.464 91.605 C 13.536 91.561,13.595 91.663,13.595 91.833 C 13.595 92.003,13.525 92.099,13.440 92.046 C 13.349 91.990,13.332 92.149,13.399 92.434 C 13.535 93.008,13.535 93.099,13.406 93.756 C 13.242 94.587,13.786 95.122,14.555 94.886 C 14.883 94.785,15.173 94.769,15.200 94.850 C 15.228 94.931,15.731 95.047,16.318 95.108 C 17.053 95.185,17.352 95.165,17.277 95.043 C 17.201 94.921,18.150 94.865,20.337 94.860 C 22.533 94.856,23.473 94.909,23.397 95.031 C 23.325 95.149,23.477 95.178,23.852 95.119 C 25.153 94.913,25.080 94.986,25.286 93.686 C 25.341 93.337,25.312 93.160,25.211 93.223 C 25.112 93.284,25.079 93.144,25.128 92.870 C 25.264 92.101,25.296 91.354,25.315 88.375 L 25.333 85.500 48.250 85.500 L 71.167 85.500 71.185 89.125 C 71.195 91.119,71.189 92.925,71.171 93.138 C 71.154 93.352,71.277 93.688,71.445 93.886 C 71.712 94.200,71.714 94.216,71.458 94.018 C 71.208 93.824,71.167 93.830,71.167 94.063 C 71.167 94.212,71.251 94.333,71.354 94.333 C 71.488 94.333,71.486 94.399,71.346 94.568 C 71.116 94.845,71.270 94.967,71.792 94.922 C 71.998 94.904,72.167 94.952,72.167 95.028 C 72.167 95.104,72.359 95.167,72.593 95.167 C 72.828 95.167,72.977 95.098,72.925 95.014 C 72.869 94.923,74.115 94.864,75.995 94.868 C 77.753 94.872,79.120 94.940,79.070 95.021 C 79.021 95.101,79.327 95.167,79.750 95.167 C 80.173 95.167,80.480 95.103,80.432 95.024 C 80.383 94.946,80.520 94.915,80.736 94.956 C 80.951 94.998,81.178 94.949,81.241 94.849 C 81.322 94.717,81.448 94.716,81.692 94.847 C 82.492 95.275,83.275 94.492,82.847 93.692 C 82.716 93.448,82.717 93.322,82.849 93.241 C 82.949 93.178,82.998 92.951,82.956 92.736 C 82.915 92.520,82.946 92.383,83.024 92.432 C 83.103 92.480,83.167 92.173,83.167 91.750 C 83.167 91.327,83.107 91.017,83.034 91.062 C 82.961 91.108,82.880 89.875,82.854 88.322 L 82.806 85.500 84.278 85.486 C 85.088 85.478,86.123 85.472,86.578 85.472 C 87.033 85.473,87.549 85.397,87.723 85.303 C 87.949 85.182,88.008 85.186,87.927 85.317 C 87.858 85.428,87.951 85.500,88.162 85.500 C 88.354 85.500,88.550 85.396,88.599 85.269 C 88.669 85.086,88.788 85.075,89.164 85.217 C 89.689 85.415,90.167 85.174,90.167 84.711 C 90.167 84.542,90.065 84.588,89.845 84.857 C 89.601 85.156,89.477 85.204,89.327 85.057 C 89.178 84.910,89.204 84.871,89.441 84.891 C 89.641 84.907,89.742 84.814,89.727 84.627 C 89.715 84.467,89.771 84.378,89.852 84.428 C 89.933 84.479,90.001 84.384,90.003 84.218 C 90.005 83.963,90.030 83.955,90.167 84.167 C 90.284 84.348,90.328 84.212,90.328 83.667 C 90.328 83.122,90.284 82.985,90.167 83.167 C 90.070 83.317,90.004 83.337,90.003 83.218 C 90.001 83.109,90.069 82.977,90.154 82.924 C 90.239 82.872,90.308 82.361,90.308 81.790 C 90.299 63.363,90.338 61.071,90.660 61.071 C 90.833 61.071,90.939 61.130,90.895 61.202 C 90.850 61.274,90.964 61.333,91.147 61.333 C 91.330 61.333,91.529 61.255,91.588 61.159 C 91.662 61.040,91.774 61.048,91.939 61.185 C 92.295 61.481,92.563 61.136,92.618 60.311 C 92.660 59.684,92.640 59.647,92.374 59.853 C 92.100 60.065,92.100 60.058,92.375 59.734 C 92.535 59.545,92.667 59.311,92.667 59.213 C 92.667 58.968,93.065 58.838,93.484 58.948 C 93.682 58.999,93.833 58.960,93.833 58.856 C 93.833 58.727,93.955 58.729,94.255 58.866 C 94.836 59.131,95.076 58.850,95.107 57.867 C 95.156 56.284,95.073 56.410,96.025 56.476 C 96.794 56.529,96.871 56.505,96.767 56.235 C 96.657 55.949,96.667 55.948,96.976 56.229 C 97.211 56.441,97.334 56.468,97.421 56.326 C 97.488 56.218,97.439 56.064,97.313 55.984 C 97.147 55.879,97.141 55.838,97.292 55.836 C 97.406 55.834,97.500 55.712,97.500 55.563 C 97.500 55.330,97.459 55.324,97.208 55.518 C 96.935 55.730,96.933 55.724,97.188 55.414 C 97.693 54.799,97.767 42.318,97.270 41.676 C 97.125 41.489,97.133 41.466,97.306 41.570 C 97.471 41.669,97.513 41.603,97.468 41.310 C 97.432 41.071,97.314 40.938,97.167 40.971 C 96.994 41.010,97.015 40.926,97.244 40.674 C 97.733 40.133,97.200 39.601,96.660 40.090 C 96.404 40.321,96.323 40.341,96.363 40.164 C 96.401 39.993,96.252 39.912,95.861 39.891 C 95.129 39.852,95.116 39.830,95.094 38.671 C 95.071 37.485,94.865 37.190,94.255 37.468 C 93.955 37.604,93.833 37.607,93.833 37.477 C 93.833 37.372,93.680 37.334,93.473 37.389 C 92.909 37.536,92.530 37.249,92.626 36.748 C 92.683 36.452,92.612 36.246,92.398 36.090 C 92.099 35.872,92.099 35.852,92.388 35.532 C 92.597 35.301,92.631 35.164,92.500 35.083 C 92.396 35.019,92.215 35.098,92.098 35.259 C 91.930 35.488,91.855 35.504,91.750 35.333 C 91.655 35.180,91.680 35.155,91.833 35.250 C 91.973 35.337,92.011 35.320,91.939 35.203 C 91.860 35.076,89.773 35.019,85.059 35.017 C 81.336 35.015,78.250 34.973,78.201 34.923 C 78.152 34.874,78.517 34.827,79.014 34.819 C 81.720 34.777,81.918 34.755,81.863 34.505 C 81.820 34.311,81.875 34.320,82.126 34.546 C 82.465 34.854,82.749 34.934,82.590 34.678 C 82.538 34.593,82.582 34.469,82.690 34.402 C 82.812 34.327,82.840 34.354,82.766 34.474 C 82.701 34.580,82.726 34.667,82.823 34.667 C 83.058 34.667,83.047 34.447,82.800 34.200 C 82.644 34.044,82.649 34.000,82.819 34.000 C 82.957 34.000,83.006 33.875,82.952 33.667 C 82.904 33.483,82.933 33.333,83.016 33.333 C 83.099 33.333,83.166 32.902,83.164 32.375 C 83.163 31.781,83.108 31.502,83.019 31.641 C 82.939 31.768,82.873 29.648,82.869 26.765 C 82.864 23.704,82.922 21.702,83.013 21.758 C 83.100 21.812,83.167 21.443,83.167 20.917 C 83.167 20.402,83.103 20.020,83.024 20.068 C 82.946 20.117,82.917 19.971,82.960 19.745 C 83.007 19.500,82.961 19.333,82.847 19.333 C 82.703 19.333,82.702 19.245,82.844 18.981 C 83.115 18.474,82.647 17.995,82.172 18.292 C 81.968 18.419,81.811 18.433,81.748 18.330 C 81.592 18.078,80.789 18.122,80.931 18.375 C 81.013 18.520,80.993 18.532,80.865 18.415 C 80.747 18.308,80.658 17.101,80.618 15.080 C 80.541 11.221,80.256 10.633,78.665 11.049 C 78.482 11.096,78.333 11.063,78.333 10.975 C 78.333 10.886,78.251 10.865,78.150 10.927 C 78.017 11.009,78.017 10.947,78.150 10.698 C 78.418 10.198,78.374 9.539,78.062 9.365 C 77.876 9.261,77.850 9.176,77.979 9.097 C 78.268 8.917,78.202 8.700,77.821 8.579 C 77.588 8.506,77.394 8.570,77.225 8.777 C 77.088 8.945,77.021 8.992,77.078 8.880 C 77.186 8.666,76.402 8.376,76.216 8.562 C 76.066 8.712,75.654 8.323,75.768 8.138 C 75.933 7.870,75.675 7.144,75.453 7.256 C 75.342 7.312,75.388 7.245,75.557 7.108 C 75.763 6.940,75.828 6.745,75.754 6.512 C 75.635 6.136,75.416 6.064,75.244 6.343 C 75.174 6.456,75.059 6.416,74.926 6.234 C 74.767 6.017,74.570 5.972,74.108 6.047 C 73.581 6.133,73.500 6.102,73.500 5.818 C 73.500 5.637,73.393 5.449,73.263 5.399 C 73.075 5.327,73.062 5.204,73.201 4.806 C 73.446 4.104,73.095 3.746,72.404 3.994 C 71.952 4.156,71.940 4.151,72.240 3.918 C 72.548 3.679,72.539 3.667,72.042 3.667 C 71.755 3.667,71.471 3.745,71.412 3.841 C 71.337 3.962,71.234 3.959,71.080 3.831 C 70.957 3.729,70.420 3.659,69.887 3.676 C 67.808 3.740,65.755 3.658,65.975 3.519 C 66.298 3.315,66.138 2.738,65.776 2.801 C 65.516 2.846,65.521 2.812,65.824 2.509 C 66.430 1.904,66.056 1.113,65.344 1.494 C 65.114 1.617,65.000 1.621,65.000 1.506 C 65.000 1.266,64.447 1.290,64.175 1.542 C 63.992 1.712,63.970 1.696,64.054 1.458 C 64.146 1.197,64.024 1.167,62.870 1.169 C 62.090 1.171,61.672 1.228,61.809 1.315 C 61.935 1.395,55.837 1.468,47.923 1.481 C 38.436 1.496,33.845 1.449,33.915 1.335 C 33.981 1.229,33.669 1.167,33.073 1.167 C 32.266 1.167,32.155 1.202,32.326 1.407 M65.926 1.681 C 65.987 1.781,65.949 1.950,65.840 2.056 C 65.690 2.204,65.656 2.191,65.696 2.000 C 65.726 1.862,65.651 1.771,65.529 1.796 C 65.408 1.821,65.356 1.765,65.414 1.671 C 65.552 1.448,65.785 1.453,65.926 1.681 M24.185 4.233 C 23.735 4.482,23.348 5.093,23.339 5.569 C 23.336 5.745,23.289 5.844,23.234 5.790 C 22.871 5.426,23.720 3.994,24.292 4.006 C 24.519 4.011,24.495 4.061,24.185 4.233 M18.833 8.806 C 18.833 9.023,18.635 9.167,18.474 9.067 C 18.302 8.961,18.450 8.667,18.677 8.667 C 18.763 8.667,18.833 8.729,18.833 8.806 M16.738 11.314 C 16.789 11.396,16.699 11.564,16.540 11.689 C 16.278 11.895,16.272 11.889,16.479 11.625 C 16.617 11.448,16.637 11.333,16.529 11.333 C 16.430 11.333,16.273 11.465,16.180 11.625 C 16.087 11.785,16.008 11.838,16.005 11.742 C 15.994 11.353,16.559 11.024,16.738 11.314 M80.042 11.692 C 80.202 11.882,80.332 12.160,80.331 12.310 C 80.329 12.489,80.256 12.439,80.120 12.167 C 80.006 11.938,79.651 11.612,79.331 11.443 C 78.754 11.139,78.754 11.137,79.250 11.242 C 79.525 11.300,79.881 11.503,80.042 11.692 M13.989 18.763 C 13.883 18.891,13.725 18.953,13.640 18.900 C 13.548 18.843,13.563 18.708,13.677 18.570 C 13.784 18.442,13.941 18.380,14.027 18.433 C 14.119 18.490,14.104 18.625,13.989 18.763 M82.759 18.515 C 82.821 18.614,82.783 18.783,82.676 18.890 C 82.527 19.037,82.509 19.007,82.602 18.763 C 82.700 18.505,82.668 18.464,82.437 18.552 C 82.266 18.618,82.191 18.596,82.251 18.498 C 82.385 18.281,82.619 18.289,82.759 18.515 M42.299 24.066 L 42.347 25.333 41.882 25.354 C 40.069 25.435,39.547 25.405,39.617 25.223 C 39.657 25.117,39.617 24.762,39.526 24.434 C 39.156 23.096,39.616 22.709,41.500 22.773 L 42.250 22.799 42.299 24.066 M56.208 22.831 C 56.656 22.833,56.667 22.855,56.667 23.819 C 56.667 24.419,56.742 24.831,56.860 24.870 C 57.509 25.086,56.662 25.417,55.458 25.417 L 54.167 25.417 54.167 24.136 C 54.167 22.758,54.333 22.576,55.417 22.769 C 55.600 22.802,55.956 22.830,56.208 22.831 M13.873 34.225 C 13.979 34.160,14.003 34.194,13.933 34.308 C 13.867 34.413,13.906 34.500,14.018 34.500 C 14.130 34.500,14.174 34.548,14.115 34.607 C 13.975 34.747,13.496 34.347,13.513 34.105 C 13.521 33.988,13.558 33.996,13.611 34.126 C 13.657 34.241,13.775 34.286,13.873 34.225 M41.625 34.823 L 42.333 34.833 42.333 36.061 L 42.333 37.288 41.220 37.377 C 39.802 37.491,39.754 37.468,39.546 36.562 C 39.268 35.347,39.541 34.708,40.311 34.767 C 40.644 34.793,41.235 34.818,41.625 34.823 M56.667 35.880 C 56.667 36.597,56.728 36.981,56.833 36.917 C 56.925 36.860,57.000 36.889,57.000 36.980 C 57.000 37.292,56.594 37.399,55.380 37.408 L 54.167 37.417 54.167 36.136 L 54.167 34.854 54.708 34.802 C 55.006 34.774,55.569 34.748,55.958 34.746 L 56.667 34.741 56.667 35.880 M71.184 53.042 C 71.148 59.023,71.087 63.747,71.048 63.539 C 71.008 63.332,70.905 63.206,70.817 63.260 C 70.620 63.382,70.695 62.957,70.896 62.810 C 71.111 62.654,70.845 62.308,70.613 62.443 C 70.505 62.506,70.565 62.389,70.745 62.183 C 70.985 61.911,71.007 61.823,70.829 61.863 C 70.684 61.895,70.605 61.816,70.637 61.671 C 70.677 61.493,70.594 61.514,70.333 61.750 C 70.090 61.970,69.993 61.999,70.029 61.839 C 70.059 61.709,69.943 61.573,69.772 61.536 C 69.601 61.498,69.504 61.538,69.556 61.623 C 69.609 61.708,69.546 61.778,69.417 61.778 C 69.287 61.778,69.208 61.734,69.241 61.681 C 69.325 61.546,26.511 61.640,26.292 61.775 C 26.188 61.840,26.164 61.806,26.234 61.692 C 26.386 61.446,25.961 61.439,25.717 61.683 C 25.583 61.817,25.500 61.764,25.413 61.488 C 25.293 61.109,25.657 60.660,26.074 60.672 C 26.171 60.675,26.119 60.753,25.958 60.847 C 25.529 61.097,25.602 61.245,26.173 61.285 C 26.531 61.311,26.643 61.262,26.557 61.119 C 26.470 60.973,26.509 60.976,26.697 61.128 C 27.079 61.437,70.270 61.351,70.208 61.042 C 70.185 60.927,70.242 60.833,70.333 60.833 C 70.425 60.833,70.500 60.946,70.500 61.083 C 70.500 61.372,70.762 61.417,70.924 61.156 C 70.984 61.058,70.902 60.882,70.741 60.764 C 70.512 60.597,70.496 60.522,70.667 60.416 C 70.823 60.320,70.846 60.348,70.749 60.516 C 70.674 60.645,70.670 60.699,70.739 60.637 C 70.809 60.574,70.874 57.049,70.884 52.803 C 70.904 44.511,70.960 42.167,71.137 42.167 C 71.199 42.167,71.220 47.060,71.184 53.042 M25.488 42.458 C 25.465 42.711,25.189 43.245,25.166 43.083 C 25.152 42.992,25.116 42.785,25.085 42.625 C 25.053 42.459,25.131 42.333,25.265 42.333 C 25.394 42.333,25.495 42.390,25.488 42.458 M25.349 44.954 C 25.192 45.224,25.176 45.218,25.172 44.889 C 25.163 44.299,25.399 43.819,25.468 44.287 C 25.498 44.490,25.444 44.790,25.349 44.954 M13.726 93.919 C 13.595 94.262,13.991 94.705,14.318 94.581 C 14.509 94.508,14.533 94.531,14.403 94.662 C 14.025 95.043,13.293 94.304,13.582 93.835 C 13.741 93.579,13.835 93.634,13.726 93.919 M82.833 94.254 C 82.833 94.616,82.176 94.913,81.940 94.658 C 81.796 94.500,81.802 94.480,81.966 94.573 C 82.247 94.733,82.708 94.347,82.593 94.048 C 82.544 93.920,82.578 93.862,82.669 93.918 C 82.759 93.974,82.833 94.125,82.833 94.254 " stroke="none" fill="#04a4b4" fill-rule="evenodd"></path><path id="path1" d="M266.704 20.759 C 266.400 20.972,266.333 21.178,266.333 21.903 L 266.333 22.786 264.125 22.902 C 261.382 23.046,261.500 22.925,261.500 25.596 L 261.500 27.628 260.423 27.696 C 259.002 27.787,259.091 27.545,259.030 31.514 L 258.976 35.000 256.675 35.000 L 254.375 35.000 254.271 35.521 C 254.131 36.220,254.169 43.473,254.316 44.000 C 254.431 44.415,254.438 44.417,256.712 44.463 L 258.993 44.509 259.038 58.746 C 259.074 70.177,259.126 73.026,259.301 73.200 C 259.627 73.526,270.331 73.514,270.724 73.188 C 270.977 72.978,271.000 71.762,271.000 58.730 L 271.000 44.500 274.375 44.497 C 277.885 44.495,278.074 44.466,278.211 43.917 C 278.257 43.733,278.307 48.233,278.321 53.917 C 278.353 66.399,278.297 65.932,279.782 66.108 L 280.622 66.208 280.724 67.300 C 280.843 68.574,280.937 68.661,282.201 68.664 L 283.151 68.667 283.201 69.792 L 283.250 70.917 284.458 70.966 L 285.667 71.015 285.667 71.987 C 285.667 72.688,285.744 73.023,285.942 73.188 C 286.251 73.445,304.349 73.539,304.603 73.285 C 304.676 73.213,304.766 72.672,304.803 72.084 L 304.871 71.014 305.977 70.966 L 307.083 70.917 307.133 69.792 L 307.182 68.667 308.224 68.667 C 309.527 68.667,309.667 68.527,309.667 67.224 L 309.667 66.182 310.792 66.133 L 311.917 66.083 311.963 63.708 L 312.009 61.333 312.563 61.333 C 314.429 61.333,314.417 61.381,314.417 53.909 C 314.417 47.072,314.460 47.269,312.926 47.077 L 312.009 46.963 311.963 44.606 L 311.917 42.250 310.816 42.201 L 309.715 42.153 309.599 40.201 C 309.433 37.426,309.317 37.339,305.792 37.335 L 304.833 37.333 304.833 36.594 C 304.833 36.188,304.760 35.663,304.671 35.428 L 304.508 35.000 295.410 35.000 C 285.065 35.000,285.667 34.918,285.667 36.332 L 285.667 37.319 284.458 37.368 L 283.250 37.417 283.201 38.625 L 283.152 39.833 282.014 39.833 L 280.875 39.833 280.771 40.354 C 280.714 40.641,280.667 41.166,280.667 41.521 C 280.667 42.161,280.661 42.167,280.011 42.167 C 279.155 42.167,278.547 42.406,278.450 42.782 C 278.407 42.948,278.363 41.457,278.353 39.469 C 278.342 37.481,278.260 35.663,278.171 35.428 L 278.008 35.000 274.504 35.000 L 271.000 35.000 271.000 33.762 L 271.000 32.525 274.409 32.471 C 276.926 32.431,277.874 32.360,278.034 32.200 C 278.400 31.833,278.342 21.709,277.970 21.142 C 277.588 20.558,277.010 20.500,271.597 20.500 C 267.773 20.500,267.017 20.540,266.704 20.759 M130.792 22.992 C 129.252 23.121,129.175 23.183,129.050 24.393 L 128.953 25.333 127.828 25.333 C 126.535 25.333,126.500 25.371,126.500 26.764 L 126.500 27.667 125.597 27.667 C 124.202 27.667,124.167 27.700,124.167 29.011 L 124.167 30.152 122.958 30.201 L 121.750 30.250 121.701 31.355 L 121.652 32.461 120.646 32.534 C 119.354 32.627,119.339 32.658,119.336 35.191 C 119.333 37.533,119.350 37.500,118.157 37.500 C 116.868 37.500,116.917 37.080,116.917 48.167 C 116.917 59.253,116.868 58.833,118.157 58.833 C 119.356 58.833,119.333 58.787,119.333 61.262 C 119.333 63.813,119.345 63.833,120.798 63.833 L 121.618 63.833 121.734 65.777 C 121.900 68.559,121.773 68.433,124.579 68.601 L 126.500 68.716 126.500 69.594 C 126.500 70.963,126.535 71.000,127.851 71.000 L 129.000 71.000 129.000 71.980 C 129.000 73.517,128.330 73.409,138.234 73.470 C 150.095 73.544,150.333 73.514,150.464 71.929 L 150.540 71.014 151.728 70.965 L 152.917 70.917 152.966 69.799 L 153.015 68.682 154.132 68.632 L 155.250 68.583 155.293 67.917 C 155.406 66.158,155.383 66.187,156.631 66.132 L 157.750 66.083 157.799 64.980 L 157.848 63.878 158.788 63.767 C 160.245 63.596,160.167 63.877,160.167 58.816 L 160.167 54.340 159.779 54.242 C 158.791 53.994,148.852 54.243,148.572 54.523 C 148.360 54.735,148.280 55.260,148.210 56.879 L 148.120 58.962 147.145 59.073 C 146.001 59.202,145.833 59.405,145.833 60.656 L 145.833 61.500 143.958 61.502 C 141.533 61.506,141.299 61.618,141.098 62.878 L 140.946 63.833 139.746 63.833 L 138.546 63.833 138.444 62.968 C 138.289 61.662,138.159 61.592,135.745 61.528 L 133.667 61.473 133.667 60.642 C 133.667 59.400,133.499 59.202,132.332 59.070 L 131.333 58.957 131.333 58.075 C 131.333 56.703,131.298 56.667,129.982 56.667 L 128.833 56.667 128.833 48.167 L 128.833 39.667 129.982 39.667 C 131.301 39.667,131.333 39.633,131.333 38.236 L 131.333 37.333 132.072 37.333 C 133.477 37.333,133.667 37.165,133.667 35.921 L 133.667 34.833 135.821 34.833 C 138.386 34.833,138.500 34.773,138.500 33.405 L 138.500 32.500 139.730 32.500 L 140.960 32.500 141.033 33.513 C 141.127 34.814,141.155 34.828,143.708 34.831 L 145.833 34.833 145.836 35.792 C 145.839 37.060,145.941 37.178,147.120 37.285 L 148.120 37.375 148.210 39.457 C 148.280 41.074,148.360 41.599,148.572 41.811 C 148.853 42.092,158.794 42.338,159.789 42.089 L 160.187 41.989 160.135 37.564 C 160.076 32.521,160.121 32.667,158.642 32.667 L 157.848 32.667 157.799 31.458 L 157.750 30.250 156.671 30.199 C 155.413 30.140,155.339 30.063,155.336 28.809 C 155.333 27.724,155.261 27.667,153.911 27.667 L 153.015 27.667 152.966 26.542 L 152.917 25.417 150.549 25.370 L 148.182 25.324 148.133 24.205 C 148.084 23.111,148.072 23.083,147.583 22.979 C 146.931 22.840,132.471 22.851,130.792 22.992 M346.167 25.667 C 345.850 25.984,345.833 26.222,345.833 30.500 L 345.833 35.000 343.414 35.000 L 340.995 35.000 341.039 39.708 L 341.083 44.417 343.453 44.463 L 345.823 44.509 345.870 57.415 C 345.925 72.620,345.575 70.871,348.582 70.971 L 350.667 71.040 350.667 72.166 L 350.667 73.292 351.188 73.396 C 352.090 73.576,361.993 73.516,362.344 73.327 C 362.668 73.154,362.866 64.881,362.566 64.097 C 362.480 63.874,362.109 63.833,360.172 63.833 L 357.880 63.833 357.784 62.905 C 357.657 61.672,357.487 61.500,356.396 61.500 L 355.500 61.500 355.500 53.000 L 355.500 44.500 358.982 44.500 C 363.098 44.500,362.662 44.870,362.680 41.361 C 362.687 39.925,362.733 38.862,362.782 39.000 C 362.945 39.455,363.387 39.667,364.173 39.667 L 364.950 39.667 365.068 43.037 C 365.197 46.705,365.233 46.832,366.145 46.836 C 367.562 46.841,367.500 46.707,367.504 49.728 C 367.510 53.641,367.592 53.881,368.995 54.067 L 369.781 54.171 369.889 57.211 C 370.030 61.217,370.083 61.333,371.775 61.333 L 372.333 61.333 372.333 63.550 C 372.333 66.131,372.352 66.167,373.700 66.167 L 374.667 66.167 374.667 69.814 L 374.667 73.462 373.762 73.575 C 372.677 73.710,372.555 73.835,372.406 74.962 L 372.290 75.833 370.159 75.833 C 367.398 75.833,367.500 75.783,367.500 77.161 L 367.500 78.287 366.625 78.389 C 365.216 78.553,365.167 78.678,365.167 82.081 C 365.167 84.554,365.205 84.991,365.442 85.188 C 365.755 85.448,376.344 85.620,379.447 85.415 C 381.515 85.278,381.695 85.167,381.795 83.961 L 381.871 83.038 382.775 82.963 C 384.110 82.852,384.293 82.438,384.321 79.458 L 384.333 78.167 385.327 78.167 C 386.670 78.167,386.667 78.176,386.667 74.261 L 386.667 71.000 387.551 71.000 C 389.090 71.000,389.075 71.037,389.140 67.180 L 389.197 63.833 390.026 63.833 C 391.556 63.833,391.500 63.980,391.500 59.994 L 391.500 56.500 392.647 56.500 C 394.038 56.500,393.995 56.590,393.998 53.708 L 394.000 51.667 394.994 51.667 C 396.337 51.667,396.333 51.676,396.333 47.761 L 396.333 44.500 397.292 44.497 C 398.829 44.493,398.742 44.752,398.807 39.994 C 398.838 37.693,398.818 35.627,398.762 35.405 L 398.660 35.000 393.009 35.000 C 386.071 35.000,386.833 34.528,386.833 38.825 L 386.833 42.127 385.831 42.199 C 384.383 42.304,384.425 42.194,384.360 46.091 L 384.304 49.500 383.694 49.502 C 382.100 49.508,382.010 49.730,381.970 53.733 L 381.940 56.750 381.845 54.631 C 381.735 52.180,381.662 52.043,380.384 51.892 L 379.539 51.791 379.472 48.543 C 379.395 44.804,379.339 44.667,377.898 44.667 L 377.167 44.667 377.155 42.792 C 377.126 38.256,376.916 37.503,375.676 37.497 C 374.800 37.494,374.690 37.352,374.634 36.162 L 374.583 35.083 368.838 35.083 L 363.093 35.083 362.901 35.469 L 362.708 35.855 362.601 35.428 L 362.494 35.000 359.024 35.000 L 355.553 35.000 355.448 30.525 C 355.333 25.680,355.320 25.580,354.780 25.435 C 353.678 25.140,346.501 25.333,346.167 25.667 M170.642 35.188 C 170.166 35.362,170.006 35.739,170.002 36.689 L 170.000 37.295 168.905 37.364 C 167.611 37.447,167.506 37.560,167.503 38.875 L 167.500 39.833 166.510 39.833 C 165.263 39.833,165.285 39.792,165.083 42.417 L 164.917 44.583 164.000 44.632 C 162.577 44.707,162.666 44.059,162.669 54.240 C 162.672 64.281,162.593 63.699,163.963 63.798 L 164.953 63.870 165.059 65.227 C 165.117 65.973,165.165 66.930,165.166 67.355 C 165.167 68.291,165.319 68.427,166.522 68.572 L 167.460 68.686 167.538 69.618 C 167.646 70.927,167.791 71.000,170.274 71.000 L 172.318 71.000 172.367 72.115 C 172.433 73.596,171.997 73.529,181.170 73.468 C 189.707 73.411,189.045 73.526,189.137 72.077 L 189.205 71.000 191.197 71.000 C 193.671 71.000,193.757 70.958,193.902 69.680 L 194.015 68.682 195.013 68.569 C 196.291 68.424,196.333 68.338,196.333 65.868 L 196.333 63.880 197.276 63.783 C 198.844 63.621,198.742 64.130,198.808 56.119 C 198.897 45.125,198.859 44.835,197.288 44.705 L 196.358 44.627 196.304 42.391 C 196.242 39.839,196.243 39.840,194.887 39.836 L 194.024 39.833 193.917 38.875 C 193.858 38.348,193.784 37.834,193.752 37.732 C 193.672 37.471,192.673 37.337,190.792 37.335 L 189.167 37.333 189.167 36.430 C 189.167 34.852,190.113 34.998,180.024 35.013 C 174.699 35.021,170.905 35.092,170.642 35.188 M201.370 35.291 C 201.133 35.869,201.227 72.961,201.467 73.200 C 201.705 73.439,212.310 73.529,212.875 73.297 C 213.149 73.184,213.167 72.398,213.167 60.108 L 213.167 47.039 214.260 46.922 C 215.501 46.789,215.667 46.591,215.667 45.239 L 215.667 44.500 218.083 44.500 L 220.500 44.500 220.501 57.792 C 220.503 72.494,220.513 72.725,221.142 73.137 C 221.593 73.433,231.528 73.576,232.208 73.297 C 232.483 73.184,232.500 72.397,232.500 60.089 L 232.500 47.000 233.292 46.998 C 234.572 46.994,234.833 46.872,234.835 46.272 C 234.836 45.985,234.883 45.469,234.940 45.125 L 235.044 44.500 237.438 44.500 L 239.833 44.500 239.833 45.647 C 239.833 46.949,239.884 46.993,241.375 46.998 L 242.167 47.000 242.167 60.087 L 242.167 73.175 242.615 73.345 C 243.377 73.635,251.475 73.475,251.670 73.167 C 251.859 72.867,251.879 40.811,251.691 39.122 C 251.518 37.564,251.452 37.522,249.036 37.392 L 247.000 37.282 246.997 36.349 C 246.993 34.870,247.692 34.982,238.803 35.035 C 229.878 35.089,230.420 35.001,230.241 36.428 L 230.128 37.333 228.905 37.333 L 227.682 37.333 227.633 36.208 L 227.583 35.083 214.537 35.041 C 202.228 35.000,201.484 35.015,201.370 35.291 M316.917 35.542 C 316.765 36.388,316.900 73.122,317.056 73.278 C 317.232 73.453,327.039 73.462,327.860 73.287 C 328.855 73.075,328.833 73.376,328.833 59.583 L 328.833 47.048 329.940 46.945 C 331.290 46.819,331.220 46.889,331.304 45.577 L 331.372 44.500 334.936 44.500 L 338.500 44.500 338.500 39.750 L 338.500 35.000 332.675 35.000 C 327.494 35.000,326.833 35.030,326.700 35.268 C 326.562 35.515,326.541 35.515,326.447 35.268 C 326.356 35.031,325.813 35.000,321.679 35.000 L 317.015 35.000 316.917 35.542 M97.542 43.917 C 97.544 44.283,97.578 44.414,97.618 44.206 C 97.658 43.999,97.656 43.699,97.615 43.540 C 97.573 43.380,97.540 43.550,97.542 43.917 M184.333 45.577 C 184.333 46.858,184.490 47.000,185.906 47.000 L 186.833 47.000 186.833 54.243 L 186.833 61.485 185.625 61.534 L 184.417 61.583 184.367 62.708 L 184.318 63.833 180.742 63.833 L 177.167 63.833 177.167 63.188 C 177.167 62.832,177.120 62.307,177.063 62.021 L 176.958 61.500 175.813 61.500 L 174.667 61.500 174.667 54.250 L 174.667 47.000 175.625 46.997 C 176.919 46.994,177.020 46.901,177.124 45.604 L 177.212 44.500 180.773 44.500 L 184.333 44.500 184.333 45.577 M297.667 45.344 C 297.667 46.518,297.870 46.833,298.631 46.836 C 299.854 46.840,299.955 46.925,300.034 48.028 C 300.119 49.201,300.257 49.327,301.458 49.331 L 302.333 49.333 302.333 54.145 L 302.333 58.957 301.338 59.070 C 300.176 59.201,300.161 59.219,300.043 60.511 L 299.954 61.500 299.072 61.500 C 297.915 61.500,297.667 61.753,297.667 62.929 L 297.667 63.833 295.174 63.833 L 292.682 63.833 292.633 62.708 L 292.583 61.583 291.481 61.535 L 290.378 61.486 290.297 59.399 C 290.204 56.987,290.144 56.874,288.865 56.723 L 288.000 56.620 288.000 54.143 L 288.000 51.667 288.732 51.667 C 290.035 51.667,290.198 51.392,290.295 49.044 C 290.387 46.802,290.363 46.841,291.675 46.836 C 292.490 46.832,292.667 46.588,292.667 45.467 L 292.667 44.500 295.167 44.500 L 297.667 44.500 297.667 45.344 M97.548 52.583 C 97.549 53.042,97.581 53.209,97.620 52.956 C 97.658 52.703,97.657 52.328,97.617 52.123 C 97.578 51.918,97.546 52.125,97.548 52.583 " stroke="none" fill="#241c43" fill-rule="evenodd"></path><path id="path2" d="M31.953 1.383 C 31.904 1.510,32.004 1.609,32.198 1.623 C 32.465 1.643,32.489 1.604,32.326 1.407 C 32.081 1.113,32.057 1.111,31.953 1.383 M33.915 1.335 C 33.845 1.449,38.436 1.496,47.923 1.481 C 55.837 1.468,61.935 1.395,61.809 1.315 C 61.477 1.105,34.045 1.125,33.915 1.335 M65.000 1.495 C 65.000 1.584,65.125 1.608,65.277 1.550 C 65.466 1.477,65.516 1.507,65.432 1.642 C 65.357 1.763,65.396 1.824,65.529 1.796 C 65.651 1.771,65.726 1.862,65.696 2.000 C 65.652 2.207,65.681 2.212,65.863 2.030 C 66.046 1.849,66.028 1.770,65.760 1.572 C 65.388 1.298,65.000 1.258,65.000 1.495 M30.455 1.743 C 30.194 1.933,30.190 1.979,30.419 2.168 C 30.635 2.348,30.657 2.335,30.559 2.080 C 30.483 1.881,30.506 1.817,30.627 1.892 C 30.728 1.954,30.854 1.934,30.908 1.848 C 31.070 1.585,30.766 1.515,30.455 1.743 M65.803 2.503 C 65.539 2.793,65.541 2.810,65.845 2.787 C 66.034 2.772,66.167 2.639,66.167 2.465 C 66.167 2.109,66.160 2.110,65.803 2.503 M30.167 2.907 C 30.167 3.418,30.262 3.459,30.382 3.000 C 30.430 2.817,30.401 2.625,30.318 2.574 C 30.235 2.522,30.167 2.672,30.167 2.907 M72.085 3.998 C 72.026 4.093,72.093 4.120,72.243 4.063 C 72.577 3.935,73.043 4.315,72.926 4.619 C 72.871 4.763,72.909 4.806,73.028 4.733 C 73.157 4.653,73.190 4.728,73.128 4.963 C 73.074 5.168,73.126 5.346,73.254 5.395 C 73.421 5.459,73.437 5.362,73.324 4.966 C 73.073 4.094,72.367 3.541,72.085 3.998 M23.684 4.316 C 23.356 4.644,23.060 5.615,23.234 5.790 C 23.289 5.844,23.336 5.745,23.339 5.569 C 23.348 5.093,23.735 4.482,24.185 4.233 C 24.495 4.061,24.519 4.011,24.292 4.006 C 24.131 4.003,23.858 4.142,23.684 4.316 M20.745 6.508 C 20.586 6.765,20.803 6.930,21.017 6.716 C 21.137 6.596,21.140 6.503,21.026 6.433 C 20.933 6.375,20.806 6.409,20.745 6.508 M20.611 7.278 C 20.442 7.447,20.479 8.200,20.651 8.093 C 20.734 8.042,20.760 7.838,20.708 7.640 C 20.638 7.373,20.670 7.316,20.833 7.416 C 20.978 7.506,21.011 7.487,20.933 7.359 C 20.795 7.136,20.761 7.127,20.611 7.278 M18.424 8.822 C 18.310 9.006,18.573 9.205,18.727 9.051 C 18.885 8.893,18.856 8.667,18.677 8.667 C 18.590 8.667,18.477 8.736,18.424 8.822 M18.167 9.375 C 18.167 9.496,18.317 9.595,18.500 9.595 C 18.683 9.595,18.833 9.576,18.833 9.553 C 18.833 9.531,18.683 9.431,18.500 9.333 C 18.245 9.197,18.167 9.207,18.167 9.375 M16.197 11.380 C 15.826 11.827,15.657 12.500,15.916 12.500 C 16.055 12.500,16.118 12.400,16.065 12.263 C 15.955 11.976,16.274 11.333,16.526 11.333 C 16.639 11.333,16.621 11.444,16.479 11.625 C 16.272 11.889,16.278 11.895,16.540 11.689 C 16.699 11.564,16.789 11.396,16.738 11.314 C 16.609 11.106,16.404 11.131,16.197 11.380 M79.331 11.443 C 79.651 11.612,80.006 11.938,80.120 12.167 C 80.256 12.439,80.329 12.489,80.331 12.310 C 80.335 11.885,79.801 11.358,79.250 11.242 C 78.754 11.137,78.754 11.139,79.331 11.443 M13.677 18.570 C 13.563 18.708,13.548 18.843,13.640 18.900 C 13.725 18.953,13.883 18.891,13.989 18.763 C 14.104 18.625,14.119 18.490,14.027 18.433 C 13.941 18.380,13.784 18.442,13.677 18.570 M82.251 18.498 C 82.191 18.596,82.266 18.618,82.437 18.552 C 82.660 18.467,82.700 18.507,82.614 18.730 C 82.540 18.924,82.567 18.979,82.697 18.898 C 82.826 18.818,82.855 18.871,82.784 19.056 C 82.725 19.209,82.750 19.333,82.839 19.333 C 83.048 19.333,83.044 19.060,82.827 18.656 C 82.639 18.303,82.410 18.241,82.251 18.498 M82.869 26.765 C 82.873 29.648,82.939 31.768,83.019 31.641 C 83.213 31.335,83.208 21.878,83.013 21.758 C 82.922 21.702,82.864 23.704,82.869 26.765 M42.165 24.049 L 42.247 25.417 42.298 24.183 C 42.326 23.504,42.289 22.889,42.216 22.815 C 42.143 22.742,42.120 23.297,42.165 24.049 M39.456 23.436 C 39.410 23.675,39.432 24.069,39.505 24.311 C 39.612 24.664,39.641 24.579,39.652 23.875 C 39.668 22.925,39.587 22.746,39.456 23.436 M56.669 25.208 C 56.671 25.512,56.703 25.535,56.833 25.333 C 57.042 25.010,57.042 24.833,56.833 24.833 C 56.742 24.833,56.668 25.002,56.669 25.208 M13.513 34.105 C 13.496 34.347,13.975 34.747,14.115 34.607 C 14.174 34.548,14.130 34.500,14.018 34.500 C 13.906 34.500,13.867 34.413,13.933 34.308 C 14.003 34.194,13.979 34.160,13.873 34.225 C 13.775 34.286,13.657 34.241,13.611 34.126 C 13.558 33.996,13.521 33.988,13.513 34.105 M42.224 36.083 C 42.224 36.817,42.254 37.096,42.289 36.704 C 42.324 36.312,42.324 35.712,42.288 35.371 C 42.252 35.029,42.223 35.350,42.224 36.083 M91.757 35.155 C 91.643 35.339,91.906 35.538,92.060 35.384 C 92.219 35.226,92.189 35.000,92.010 35.000 C 91.924 35.000,91.810 35.070,91.757 35.155 M39.451 35.502 C 39.403 35.687,39.425 36.043,39.501 36.294 C 39.619 36.688,39.640 36.642,39.652 35.958 C 39.668 35.117,39.595 34.952,39.451 35.502 M92.441 35.297 C 92.472 35.346,92.416 35.483,92.318 35.602 C 92.116 35.846,92.250 36.168,92.552 36.164 C 92.671 36.163,92.651 36.096,92.500 35.997 C 92.279 35.852,92.278 35.815,92.499 35.674 C 92.673 35.562,92.693 35.468,92.566 35.361 C 92.467 35.277,92.411 35.248,92.441 35.297 M3.696 36.278 C 3.726 36.431,3.846 36.575,3.962 36.599 C 4.079 36.622,4.098 36.604,4.004 36.557 C 3.910 36.510,3.833 36.399,3.833 36.310 C 3.833 36.220,3.920 36.201,4.026 36.266 C 4.145 36.340,4.173 36.312,4.099 36.192 C 3.920 35.902,3.635 35.962,3.696 36.278 M1.169 39.292 C 1.171 39.625,1.212 39.686,1.320 39.515 C 1.402 39.386,1.431 39.180,1.383 39.057 C 1.248 38.704,1.166 38.794,1.169 39.292 M25.085 42.625 C 25.116 42.785,25.152 42.992,25.166 43.083 C 25.179 43.175,25.255 43.100,25.333 42.917 C 25.540 42.435,25.529 42.333,25.265 42.333 C 25.131 42.333,25.053 42.459,25.085 42.625 M25.290 44.222 C 25.085 44.730,25.133 45.325,25.349 44.954 C 25.444 44.790,25.498 44.490,25.468 44.287 C 25.419 43.954,25.401 43.947,25.290 44.222 M70.909 52.750 C 70.909 56.233,70.931 57.682,70.958 55.969 C 70.985 54.257,70.985 51.407,70.958 49.636 C 70.931 47.865,70.909 49.267,70.909 52.750 M70.599 60.474 C 70.542 60.567,70.576 60.694,70.675 60.755 C 70.931 60.914,71.097 60.697,70.883 60.483 C 70.763 60.363,70.670 60.360,70.599 60.474 M25.688 60.817 C 25.562 60.896,25.487 61.029,25.521 61.113 C 25.555 61.196,25.715 61.130,25.875 60.965 C 26.181 60.652,26.078 60.570,25.688 60.817 M6.078 71.083 C 6.078 76.492,6.099 78.680,6.125 75.946 C 6.151 73.213,6.151 68.788,6.125 66.113 C 6.099 63.438,6.078 65.675,6.078 71.083 M37.375 61.625 C 42.760 61.649,51.573 61.649,56.958 61.625 C 62.344 61.601,57.938 61.581,47.167 61.581 C 36.396 61.581,31.990 61.601,37.375 61.625 M70.056 61.754 C 70.056 61.927,70.111 61.956,70.224 61.843 C 70.469 61.597,70.893 61.978,70.671 62.244 C 70.555 62.385,70.580 62.444,70.755 62.444 C 70.925 62.444,70.986 62.311,70.948 62.026 C 70.883 61.541,70.056 61.288,70.056 61.754 M90.000 84.260 C 90.000 84.403,89.933 84.479,89.852 84.428 C 89.771 84.378,89.715 84.467,89.727 84.627 C 89.742 84.814,89.641 84.907,89.441 84.891 C 89.204 84.871,89.178 84.910,89.327 85.057 C 89.477 85.204,89.601 85.156,89.845 84.857 C 90.142 84.493,90.279 84.000,90.083 84.000 C 90.037 84.000,90.000 84.117,90.000 84.260 M82.854 88.322 C 82.880 89.875,82.961 91.108,83.034 91.062 C 83.246 90.932,83.199 85.500,82.986 85.500 C 82.862 85.500,82.821 86.381,82.854 88.322 M25.175 92.417 C 25.056 92.960,25.072 93.328,25.208 93.192 C 25.293 93.107,25.328 92.861,25.287 92.644 C 25.246 92.427,25.196 92.325,25.175 92.417 M13.336 93.125 C 13.338 93.459,13.379 93.519,13.487 93.348 C 13.569 93.219,13.597 93.013,13.550 92.890 C 13.415 92.538,13.333 92.627,13.336 93.125 M13.582 93.835 C 13.293 94.304,14.025 95.043,14.403 94.662 C 14.533 94.531,14.509 94.508,14.318 94.581 C 13.991 94.705,13.595 94.262,13.726 93.919 C 13.835 93.634,13.741 93.579,13.582 93.835 M82.593 94.048 C 82.708 94.347,82.247 94.733,81.966 94.573 C 81.802 94.480,81.796 94.500,81.940 94.658 C 82.085 94.814,82.216 94.819,82.482 94.676 C 82.852 94.478,82.947 94.090,82.669 93.918 C 82.578 93.862,82.544 93.920,82.593 94.048 M17.260 95.017 C 17.384 95.217,23.286 95.211,23.410 95.011 C 23.469 94.915,22.267 94.857,20.337 94.860 C 18.502 94.864,17.207 94.930,17.260 95.017 M72.925 95.014 C 73.046 95.209,78.950 95.216,79.070 95.021 C 79.120 94.940,77.753 94.872,75.995 94.868 C 74.115 94.864,72.869 94.923,72.925 95.014 " stroke="none" fill="#1480b8" fill-rule="evenodd"></path><path id="path3" d="M31.953 1.383 C 31.904 1.510,32.004 1.609,32.198 1.623 C 32.465 1.643,32.489 1.604,32.326 1.407 C 32.081 1.113,32.057 1.111,31.953 1.383 M33.915 1.335 C 33.845 1.449,38.436 1.496,47.923 1.481 C 55.837 1.468,61.935 1.395,61.809 1.315 C 61.477 1.105,34.045 1.125,33.915 1.335 M65.000 1.495 C 65.000 1.584,65.125 1.608,65.277 1.550 C 65.466 1.477,65.516 1.507,65.432 1.642 C 65.357 1.763,65.396 1.824,65.529 1.796 C 65.651 1.771,65.726 1.862,65.696 2.000 C 65.652 2.207,65.681 2.212,65.863 2.030 C 66.046 1.849,66.028 1.770,65.760 1.572 C 65.388 1.298,65.000 1.258,65.000 1.495 M30.455 1.743 C 30.194 1.933,30.190 1.979,30.419 2.168 C 30.635 2.348,30.657 2.335,30.559 2.080 C 30.483 1.881,30.506 1.817,30.627 1.892 C 30.728 1.954,30.854 1.934,30.908 1.848 C 31.070 1.585,30.766 1.515,30.455 1.743 M65.803 2.503 C 65.539 2.793,65.541 2.810,65.845 2.787 C 66.034 2.772,66.167 2.639,66.167 2.465 C 66.167 2.109,66.160 2.110,65.803 2.503 M30.167 2.907 C 30.167 3.418,30.262 3.459,30.382 3.000 C 30.430 2.817,30.401 2.625,30.318 2.574 C 30.235 2.522,30.167 2.672,30.167 2.907 M72.085 3.998 C 72.026 4.093,72.093 4.120,72.243 4.063 C 72.577 3.935,73.043 4.315,72.926 4.619 C 72.871 4.763,72.909 4.806,73.028 4.733 C 73.157 4.653,73.190 4.728,73.128 4.963 C 73.074 5.168,73.126 5.346,73.254 5.395 C 73.421 5.459,73.437 5.362,73.324 4.966 C 73.073 4.094,72.367 3.541,72.085 3.998 M23.684 4.316 C 23.356 4.644,23.060 5.615,23.234 5.790 C 23.289 5.844,23.336 5.745,23.339 5.569 C 23.348 5.093,23.735 4.482,24.185 4.233 C 24.495 4.061,24.519 4.011,24.292 4.006 C 24.131 4.003,23.858 4.142,23.684 4.316 M20.745 6.508 C 20.586 6.765,20.803 6.930,21.017 6.716 C 21.137 6.596,21.140 6.503,21.026 6.433 C 20.933 6.375,20.806 6.409,20.745 6.508 M20.611 7.278 C 20.442 7.447,20.479 8.200,20.651 8.093 C 20.734 8.042,20.760 7.838,20.708 7.640 C 20.638 7.373,20.670 7.316,20.833 7.416 C 20.978 7.506,21.011 7.487,20.933 7.359 C 20.795 7.136,20.761 7.127,20.611 7.278 M18.424 8.822 C 18.310 9.006,18.573 9.205,18.727 9.051 C 18.885 8.893,18.856 8.667,18.677 8.667 C 18.590 8.667,18.477 8.736,18.424 8.822 M18.167 9.375 C 18.167 9.496,18.317 9.595,18.500 9.595 C 18.683 9.595,18.833 9.576,18.833 9.553 C 18.833 9.531,18.683 9.431,18.500 9.333 C 18.245 9.197,18.167 9.207,18.167 9.375 M16.197 11.380 C 15.826 11.827,15.657 12.500,15.916 12.500 C 16.055 12.500,16.118 12.400,16.065 12.263 C 15.955 11.976,16.274 11.333,16.526 11.333 C 16.639 11.333,16.621 11.444,16.479 11.625 C 16.272 11.889,16.278 11.895,16.540 11.689 C 16.699 11.564,16.789 11.396,16.738 11.314 C 16.609 11.106,16.404 11.131,16.197 11.380 M79.331 11.443 C 79.651 11.612,80.006 11.938,80.120 12.167 C 80.256 12.439,80.329 12.489,80.331 12.310 C 80.335 11.885,79.801 11.358,79.250 11.242 C 78.754 11.137,78.754 11.139,79.331 11.443 M13.677 18.570 C 13.563 18.708,13.548 18.843,13.640 18.900 C 13.725 18.953,13.883 18.891,13.989 18.763 C 14.104 18.625,14.119 18.490,14.027 18.433 C 13.941 18.380,13.784 18.442,13.677 18.570 M82.251 18.498 C 82.191 18.596,82.266 18.618,82.437 18.552 C 82.660 18.467,82.700 18.507,82.614 18.730 C 82.540 18.924,82.567 18.979,82.697 18.898 C 82.826 18.818,82.855 18.871,82.784 19.056 C 82.725 19.209,82.750 19.333,82.839 19.333 C 83.048 19.333,83.044 19.060,82.827 18.656 C 82.639 18.303,82.410 18.241,82.251 18.498 M82.869 26.765 C 82.873 29.648,82.939 31.768,83.019 31.641 C 83.213 31.335,83.208 21.878,83.013 21.758 C 82.922 21.702,82.864 23.704,82.869 26.765 M42.165 24.049 L 42.247 25.417 42.298 24.183 C 42.326 23.504,42.289 22.889,42.216 22.815 C 42.143 22.742,42.120 23.297,42.165 24.049 M39.456 23.436 C 39.410 23.675,39.432 24.069,39.505 24.311 C 39.612 24.664,39.641 24.579,39.652 23.875 C 39.668 22.925,39.587 22.746,39.456 23.436 M56.669 25.208 C 56.671 25.512,56.703 25.535,56.833 25.333 C 57.042 25.010,57.042 24.833,56.833 24.833 C 56.742 24.833,56.668 25.002,56.669 25.208 M13.513 34.105 C 13.496 34.347,13.975 34.747,14.115 34.607 C 14.174 34.548,14.130 34.500,14.018 34.500 C 13.906 34.500,13.867 34.413,13.933 34.308 C 14.003 34.194,13.979 34.160,13.873 34.225 C 13.775 34.286,13.657 34.241,13.611 34.126 C 13.558 33.996,13.521 33.988,13.513 34.105 M42.224 36.083 C 42.224 36.817,42.254 37.096,42.289 36.704 C 42.324 36.312,42.324 35.712,42.288 35.371 C 42.252 35.029,42.223 35.350,42.224 36.083 M91.757 35.155 C 91.643 35.339,91.906 35.538,92.060 35.384 C 92.219 35.226,92.189 35.000,92.010 35.000 C 91.924 35.000,91.810 35.070,91.757 35.155 M39.451 35.502 C 39.403 35.687,39.425 36.043,39.501 36.294 C 39.619 36.688,39.640 36.642,39.652 35.958 C 39.668 35.117,39.595 34.952,39.451 35.502 M92.441 35.297 C 92.472 35.346,92.416 35.483,92.318 35.602 C 92.116 35.846,92.250 36.168,92.552 36.164 C 92.671 36.163,92.651 36.096,92.500 35.997 C 92.279 35.852,92.278 35.815,92.499 35.674 C 92.673 35.562,92.693 35.468,92.566 35.361 C 92.467 35.277,92.411 35.248,92.441 35.297 M3.696 36.278 C 3.726 36.431,3.846 36.575,3.962 36.599 C 4.079 36.622,4.098 36.604,4.004 36.557 C 3.910 36.510,3.833 36.399,3.833 36.310 C 3.833 36.220,3.920 36.201,4.026 36.266 C 4.145 36.340,4.173 36.312,4.099 36.192 C 3.920 35.902,3.635 35.962,3.696 36.278 M1.169 39.292 C 1.171 39.625,1.212 39.686,1.320 39.515 C 1.402 39.386,1.431 39.180,1.383 39.057 C 1.248 38.704,1.166 38.794,1.169 39.292 M25.085 42.625 C 25.116 42.785,25.152 42.992,25.166 43.083 C 25.179 43.175,25.255 43.100,25.333 42.917 C 25.540 42.435,25.529 42.333,25.265 42.333 C 25.131 42.333,25.053 42.459,25.085 42.625 M25.290 44.222 C 25.085 44.730,25.133 45.325,25.349 44.954 C 25.444 44.790,25.498 44.490,25.468 44.287 C 25.419 43.954,25.401 43.947,25.290 44.222 M70.909 52.750 C 70.909 56.233,70.931 57.682,70.958 55.969 C 70.985 54.257,70.985 51.407,70.958 49.636 C 70.931 47.865,70.909 49.267,70.909 52.750 M70.599 60.474 C 70.542 60.567,70.576 60.694,70.675 60.755 C 70.931 60.914,71.097 60.697,70.883 60.483 C 70.763 60.363,70.670 60.360,70.599 60.474 M25.688 60.817 C 25.562 60.896,25.487 61.029,25.521 61.113 C 25.555 61.196,25.715 61.130,25.875 60.965 C 26.181 60.652,26.078 60.570,25.688 60.817 M6.078 71.083 C 6.078 76.492,6.099 78.680,6.125 75.946 C 6.151 73.213,6.151 68.788,6.125 66.113 C 6.099 63.438,6.078 65.675,6.078 71.083 M37.375 61.625 C 42.760 61.649,51.573 61.649,56.958 61.625 C 62.344 61.601,57.938 61.581,47.167 61.581 C 36.396 61.581,31.990 61.601,37.375 61.625 M70.056 61.754 C 70.056 61.927,70.111 61.956,70.224 61.843 C 70.469 61.597,70.893 61.978,70.671 62.244 C 70.555 62.385,70.580 62.444,70.755 62.444 C 70.925 62.444,70.986 62.311,70.948 62.026 C 70.883 61.541,70.056 61.288,70.056 61.754 M90.000 84.260 C 90.000 84.403,89.933 84.479,89.852 84.428 C 89.771 84.378,89.715 84.467,89.727 84.627 C 89.742 84.814,89.641 84.907,89.441 84.891 C 89.204 84.871,89.178 84.910,89.327 85.057 C 89.477 85.204,89.601 85.156,89.845 84.857 C 90.142 84.493,90.279 84.000,90.083 84.000 C 90.037 84.000,90.000 84.117,90.000 84.260 M82.854 88.322 C 82.880 89.875,82.961 91.108,83.034 91.062 C 83.246 90.932,83.199 85.500,82.986 85.500 C 82.862 85.500,82.821 86.381,82.854 88.322 M25.175 92.417 C 25.056 92.960,25.072 93.328,25.208 93.192 C 25.293 93.107,25.328 92.861,25.287 92.644 C 25.246 92.427,25.196 92.325,25.175 92.417 M13.336 93.125 C 13.338 93.459,13.379 93.519,13.487 93.348 C 13.569 93.219,13.597 93.013,13.550 92.890 C 13.415 92.538,13.333 92.627,13.336 93.125 M13.582 93.835 C 13.293 94.304,14.025 95.043,14.403 94.662 C 14.533 94.531,14.509 94.508,14.318 94.581 C 13.991 94.705,13.595 94.262,13.726 93.919 C 13.835 93.634,13.741 93.579,13.582 93.835 M82.593 94.048 C 82.708 94.347,82.247 94.733,81.966 94.573 C 81.802 94.480,81.796 94.500,81.940 94.658 C 82.085 94.814,82.216 94.819,82.482 94.676 C 82.852 94.478,82.947 94.090,82.669 93.918 C 82.578 93.862,82.544 93.920,82.593 94.048 M17.260 95.017 C 17.384 95.217,23.286 95.211,23.410 95.011 C 23.469 94.915,22.267 94.857,20.337 94.860 C 18.502 94.864,17.207 94.930,17.260 95.017 M72.925 95.014 C 73.046 95.209,78.950 95.216,79.070 95.021 C 79.120 94.940,77.753 94.872,75.995 94.868 C 74.115 94.864,72.869 94.923,72.925 95.014 " stroke="none" fill="#1480b8" fill-rule="evenodd"></path><path id="path4" d="M31.953 1.383 C 31.904 1.510,32.004 1.609,32.198 1.623 C 32.465 1.643,32.489 1.604,32.326 1.407 C 32.081 1.113,32.057 1.111,31.953 1.383 M33.915 1.335 C 33.845 1.449,38.436 1.496,47.923 1.481 C 55.837 1.468,61.935 1.395,61.809 1.315 C 61.477 1.105,34.045 1.125,33.915 1.335 M65.000 1.495 C 65.000 1.584,65.125 1.608,65.277 1.550 C 65.466 1.477,65.516 1.507,65.432 1.642 C 65.357 1.763,65.396 1.824,65.529 1.796 C 65.651 1.771,65.726 1.862,65.696 2.000 C 65.652 2.207,65.681 2.212,65.863 2.030 C 66.046 1.849,66.028 1.770,65.760 1.572 C 65.388 1.298,65.000 1.258,65.000 1.495 M30.455 1.743 C 30.194 1.933,30.190 1.979,30.419 2.168 C 30.635 2.348,30.657 2.335,30.559 2.080 C 30.483 1.881,30.506 1.817,30.627 1.892 C 30.728 1.954,30.854 1.934,30.908 1.848 C 31.070 1.585,30.766 1.515,30.455 1.743 M65.803 2.503 C 65.539 2.793,65.541 2.810,65.845 2.787 C 66.034 2.772,66.167 2.639,66.167 2.465 C 66.167 2.109,66.160 2.110,65.803 2.503 M30.167 2.907 C 30.167 3.418,30.262 3.459,30.382 3.000 C 30.430 2.817,30.401 2.625,30.318 2.574 C 30.235 2.522,30.167 2.672,30.167 2.907 M72.085 3.998 C 72.026 4.093,72.093 4.120,72.243 4.063 C 72.577 3.935,73.043 4.315,72.926 4.619 C 72.871 4.763,72.909 4.806,73.028 4.733 C 73.157 4.653,73.190 4.728,73.128 4.963 C 73.074 5.168,73.126 5.346,73.254 5.395 C 73.421 5.459,73.437 5.362,73.324 4.966 C 73.073 4.094,72.367 3.541,72.085 3.998 M23.684 4.316 C 23.356 4.644,23.060 5.615,23.234 5.790 C 23.289 5.844,23.336 5.745,23.339 5.569 C 23.348 5.093,23.735 4.482,24.185 4.233 C 24.495 4.061,24.519 4.011,24.292 4.006 C 24.131 4.003,23.858 4.142,23.684 4.316 M20.745 6.508 C 20.586 6.765,20.803 6.930,21.017 6.716 C 21.137 6.596,21.140 6.503,21.026 6.433 C 20.933 6.375,20.806 6.409,20.745 6.508 M20.611 7.278 C 20.442 7.447,20.479 8.200,20.651 8.093 C 20.734 8.042,20.760 7.838,20.708 7.640 C 20.638 7.373,20.670 7.316,20.833 7.416 C 20.978 7.506,21.011 7.487,20.933 7.359 C 20.795 7.136,20.761 7.127,20.611 7.278 M18.424 8.822 C 18.310 9.006,18.573 9.205,18.727 9.051 C 18.885 8.893,18.856 8.667,18.677 8.667 C 18.590 8.667,18.477 8.736,18.424 8.822 M18.167 9.375 C 18.167 9.496,18.317 9.595,18.500 9.595 C 18.683 9.595,18.833 9.576,18.833 9.553 C 18.833 9.531,18.683 9.431,18.500 9.333 C 18.245 9.197,18.167 9.207,18.167 9.375 M16.197 11.380 C 15.826 11.827,15.657 12.500,15.916 12.500 C 16.055 12.500,16.118 12.400,16.065 12.263 C 15.955 11.976,16.274 11.333,16.526 11.333 C 16.639 11.333,16.621 11.444,16.479 11.625 C 16.272 11.889,16.278 11.895,16.540 11.689 C 16.699 11.564,16.789 11.396,16.738 11.314 C 16.609 11.106,16.404 11.131,16.197 11.380 M79.331 11.443 C 79.651 11.612,80.006 11.938,80.120 12.167 C 80.256 12.439,80.329 12.489,80.331 12.310 C 80.335 11.885,79.801 11.358,79.250 11.242 C 78.754 11.137,78.754 11.139,79.331 11.443 M13.677 18.570 C 13.563 18.708,13.548 18.843,13.640 18.900 C 13.725 18.953,13.883 18.891,13.989 18.763 C 14.104 18.625,14.119 18.490,14.027 18.433 C 13.941 18.380,13.784 18.442,13.677 18.570 M82.251 18.498 C 82.191 18.596,82.266 18.618,82.437 18.552 C 82.660 18.467,82.700 18.507,82.614 18.730 C 82.540 18.924,82.567 18.979,82.697 18.898 C 82.826 18.818,82.855 18.871,82.784 19.056 C 82.725 19.209,82.750 19.333,82.839 19.333 C 83.048 19.333,83.044 19.060,82.827 18.656 C 82.639 18.303,82.410 18.241,82.251 18.498 M82.869 26.765 C 82.873 29.648,82.939 31.768,83.019 31.641 C 83.213 31.335,83.208 21.878,83.013 21.758 C 82.922 21.702,82.864 23.704,82.869 26.765 M42.165 24.049 L 42.247 25.417 42.298 24.183 C 42.326 23.504,42.289 22.889,42.216 22.815 C 42.143 22.742,42.120 23.297,42.165 24.049 M39.456 23.436 C 39.410 23.675,39.432 24.069,39.505 24.311 C 39.612 24.664,39.641 24.579,39.652 23.875 C 39.668 22.925,39.587 22.746,39.456 23.436 M56.669 25.208 C 56.671 25.512,56.703 25.535,56.833 25.333 C 57.042 25.010,57.042 24.833,56.833 24.833 C 56.742 24.833,56.668 25.002,56.669 25.208 M13.513 34.105 C 13.496 34.347,13.975 34.747,14.115 34.607 C 14.174 34.548,14.130 34.500,14.018 34.500 C 13.906 34.500,13.867 34.413,13.933 34.308 C 14.003 34.194,13.979 34.160,13.873 34.225 C 13.775 34.286,13.657 34.241,13.611 34.126 C 13.558 33.996,13.521 33.988,13.513 34.105 M42.224 36.083 C 42.224 36.817,42.254 37.096,42.289 36.704 C 42.324 36.312,42.324 35.712,42.288 35.371 C 42.252 35.029,42.223 35.350,42.224 36.083 M91.757 35.155 C 91.643 35.339,91.906 35.538,92.060 35.384 C 92.219 35.226,92.189 35.000,92.010 35.000 C 91.924 35.000,91.810 35.070,91.757 35.155 M39.451 35.502 C 39.403 35.687,39.425 36.043,39.501 36.294 C 39.619 36.688,39.640 36.642,39.652 35.958 C 39.668 35.117,39.595 34.952,39.451 35.502 M92.441 35.297 C 92.472 35.346,92.416 35.483,92.318 35.602 C 92.116 35.846,92.250 36.168,92.552 36.164 C 92.671 36.163,92.651 36.096,92.500 35.997 C 92.279 35.852,92.278 35.815,92.499 35.674 C 92.673 35.562,92.693 35.468,92.566 35.361 C 92.467 35.277,92.411 35.248,92.441 35.297 M3.696 36.278 C 3.726 36.431,3.846 36.575,3.962 36.599 C 4.079 36.622,4.098 36.604,4.004 36.557 C 3.910 36.510,3.833 36.399,3.833 36.310 C 3.833 36.220,3.920 36.201,4.026 36.266 C 4.145 36.340,4.173 36.312,4.099 36.192 C 3.920 35.902,3.635 35.962,3.696 36.278 M1.169 39.292 C 1.171 39.625,1.212 39.686,1.320 39.515 C 1.402 39.386,1.431 39.180,1.383 39.057 C 1.248 38.704,1.166 38.794,1.169 39.292 M25.085 42.625 C 25.116 42.785,25.152 42.992,25.166 43.083 C 25.179 43.175,25.255 43.100,25.333 42.917 C 25.540 42.435,25.529 42.333,25.265 42.333 C 25.131 42.333,25.053 42.459,25.085 42.625 M25.290 44.222 C 25.085 44.730,25.133 45.325,25.349 44.954 C 25.444 44.790,25.498 44.490,25.468 44.287 C 25.419 43.954,25.401 43.947,25.290 44.222 M70.909 52.750 C 70.909 56.233,70.931 57.682,70.958 55.969 C 70.985 54.257,70.985 51.407,70.958 49.636 C 70.931 47.865,70.909 49.267,70.909 52.750 M70.599 60.474 C 70.542 60.567,70.576 60.694,70.675 60.755 C 70.931 60.914,71.097 60.697,70.883 60.483 C 70.763 60.363,70.670 60.360,70.599 60.474 M25.688 60.817 C 25.562 60.896,25.487 61.029,25.521 61.113 C 25.555 61.196,25.715 61.130,25.875 60.965 C 26.181 60.652,26.078 60.570,25.688 60.817 M6.078 71.083 C 6.078 76.492,6.099 78.680,6.125 75.946 C 6.151 73.213,6.151 68.788,6.125 66.113 C 6.099 63.438,6.078 65.675,6.078 71.083 M37.375 61.625 C 42.760 61.649,51.573 61.649,56.958 61.625 C 62.344 61.601,57.938 61.581,47.167 61.581 C 36.396 61.581,31.990 61.601,37.375 61.625 M70.056 61.754 C 70.056 61.927,70.111 61.956,70.224 61.843 C 70.469 61.597,70.893 61.978,70.671 62.244 C 70.555 62.385,70.580 62.444,70.755 62.444 C 70.925 62.444,70.986 62.311,70.948 62.026 C 70.883 61.541,70.056 61.288,70.056 61.754 M90.000 84.260 C 90.000 84.403,89.933 84.479,89.852 84.428 C 89.771 84.378,89.715 84.467,89.727 84.627 C 89.742 84.814,89.641 84.907,89.441 84.891 C 89.204 84.871,89.178 84.910,89.327 85.057 C 89.477 85.204,89.601 85.156,89.845 84.857 C 90.142 84.493,90.279 84.000,90.083 84.000 C 90.037 84.000,90.000 84.117,90.000 84.260 M82.854 88.322 C 82.880 89.875,82.961 91.108,83.034 91.062 C 83.246 90.932,83.199 85.500,82.986 85.500 C 82.862 85.500,82.821 86.381,82.854 88.322 M25.175 92.417 C 25.056 92.960,25.072 93.328,25.208 93.192 C 25.293 93.107,25.328 92.861,25.287 92.644 C 25.246 92.427,25.196 92.325,25.175 92.417 M13.336 93.125 C 13.338 93.459,13.379 93.519,13.487 93.348 C 13.569 93.219,13.597 93.013,13.550 92.890 C 13.415 92.538,13.333 92.627,13.336 93.125 M13.582 93.835 C 13.293 94.304,14.025 95.043,14.403 94.662 C 14.533 94.531,14.509 94.508,14.318 94.581 C 13.991 94.705,13.595 94.262,13.726 93.919 C 13.835 93.634,13.741 93.579,13.582 93.835 M82.593 94.048 C 82.708 94.347,82.247 94.733,81.966 94.573 C 81.802 94.480,81.796 94.500,81.940 94.658 C 82.085 94.814,82.216 94.819,82.482 94.676 C 82.852 94.478,82.947 94.090,82.669 93.918 C 82.578 93.862,82.544 93.920,82.593 94.048 M17.260 95.017 C 17.384 95.217,23.286 95.211,23.410 95.011 C 23.469 94.915,22.267 94.857,20.337 94.860 C 18.502 94.864,17.207 94.930,17.260 95.017 M72.925 95.014 C 73.046 95.209,78.950 95.216,79.070 95.021 C 79.120 94.940,77.753 94.872,75.995 94.868 C 74.115 94.864,72.869 94.923,72.925 95.014 " stroke="none" fill="#1480b8" fill-rule="evenodd"></path></g></svg>